<svg xmlns="http://www.w3.org/2000/svg" viewBox="0 0 600 800"><rect width="600" height="800" fill="white"/><g stroke="#20232b" stroke-width="10" stroke-linecap="round" stroke-linejoin="round"><path id="region-main-1" fill="white" d="M260 560V245q40-75 80 0v160h45V320q40-55 65 0v120q0 30-110 30v90Z"/><path id="region-main-2" fill="white" d="M260 410q-110 0-110-45v-85q40-55 65 0v60h45Z"/><path id="region-main-3" fill="white" d="M215 560h170l-25 130H240Z"/><circle id="region-sun" fill="white" cx="95" cy="120" r="45"/><path id="region-cloud" fill="white" d="M395 120q15-65 65-30q55-15 75 45H395Z"/><path id="region-waves" fill="white" d="M35 720q65-45 130 0t130 0t130 0t130 0v55H35Z"/></g></svg>
