<svg xmlns="http://www.w3.org/2000/svg" viewBox="0 0 600 800"><rect width="600" height="800" fill="white"/><g stroke="#20232b" stroke-width="10" stroke-linecap="round" stroke-linejoin="round"><path id="region-main-1" fill="white" d="M260 560V245q40-75 80 0v160h45V320q40-55 65 0v120q0 30-110 30v90Z"/><path id="region-main-2" fill="white" d="M260 410q-110 0-110-45v-85q40-55 65 0v60h45Z"/><path id="region-main-3" fill="white" d="M215 560h170l-25 130H240Z"/><path id="region-rainbow-outer" fill="white" d="M65 150Q300-65 535 150h-55Q300 5 120 150Z"/><path id="region-rainbow-inner" fill="white" d="M120 150Q300 5 480 150h-55Q300 70 175 150Z"/><path id="region-hills" fill="white" d="M35 735q130-70 260 0q130-70 270 0v40H35Z"/></g></svg>
