<svg xmlns="http://www.w3.org/2000/svg" viewBox="0 0 600 800"><rect width="600" height="800" fill="white"/><g stroke="#20232b" stroke-width="10" stroke-linecap="round" stroke-linejoin="round"><path id="region-main-1" fill="white" d="M175 400h250v260H175Z"/><path id="region-main-2" fill="white" d="M90 400q20-235 210-235t210 235Z"/><circle id="region-main-3" fill="white" cx="220" cy="280" r="35"/><circle id="region-main-4" fill="white" cx="365" cy="300" r="40"/><path id="region-main-5" fill="white" d="M265 660V520q35-50 70 0v140Z"/><circle id="region-main-6" fill="white" cx="225" cy="455" r="28"/><circle id="region-main-7" fill="white" cx="380" cy="455" r="28"/><path id="region-bunting" fill="white" d="M50 75h500l-55 60-55-60-55 60-55-60-55 60-55-60-55 60-55-60Z"/><ellipse id="region-balloon-95" fill="white" cx="95" cy="225" rx="35" ry="48"/><path d="M95 273v95" fill="none"/><ellipse id="region-balloon-505" fill="white" cx="505" cy="225" rx="35" ry="48"/><path d="M505 273v95" fill="none"/></g></svg>
