<svg xmlns="http://www.w3.org/2000/svg" viewBox="0 0 600 800"><rect width="600" height="800" fill="white"/><g stroke="#20232b" stroke-width="10" stroke-linecap="round" stroke-linejoin="round"><path id="region-main-1" fill="white" d="M115 565l-35-80 55-20-10-90 65 5 20-85 60 40 55-65 40 70 80-30 5 90 70 10-35 80 40 60Z"/><ellipse id="region-main-2" fill="white" cx="310" cy="510" rx="150" ry="85"/><circle id="region-main-3" fill="white" cx="435" cy="510" r="10"/><circle id="region-sun" fill="white" cx="95" cy="120" r="45"/><path id="region-cloud" fill="white" d="M395 120q15-65 65-30q55-15 75 45H395Z"/><path id="region-waves" fill="white" d="M35 720q65-45 130 0t130 0t130 0t130 0v55H35Z"/></g></svg>
