<svg xmlns="http://www.w3.org/2000/svg" viewBox="0 0 600 800"><rect width="600" height="800" fill="white"/><g stroke="#20232b" stroke-width="10" stroke-linecap="round" stroke-linejoin="round"><path id="region-main-1" fill="white" d="M230 530Q80 390 135 230q165-190 330 0q55 160-95 300Z"/><path id="region-main-2" fill="white" d="M265 530q-100-250 35-395q135 145 35 395Z"/><path id="region-main-3" fill="white" d="M230 530l30 80m110-80-30 80"/><rect id="region-main-4" fill="white" x="245" y="610" width="110" height="80" rx="10"/><circle id="region-sun" fill="white" cx="95" cy="120" r="45"/><path id="region-cloud" fill="white" d="M395 120q15-65 65-30q55-15 75 45H395Z"/><path id="region-waves" fill="white" d="M35 720q65-45 130 0t130 0t130 0t130 0v55H35Z"/></g></svg>
