<svg xmlns="http://www.w3.org/2000/svg" viewBox="0 0 600 800"><rect width="600" height="800" fill="white"/><g stroke="#20232b" stroke-width="10" stroke-linecap="round" stroke-linejoin="round"><circle id="region-main-1" fill="white" cx="300" cy="285" r="65"/><ellipse id="region-main-2" fill="white" cx="300" cy="460" rx="155" ry="180"/><path id="region-main-3" fill="white" d="M300 280v360"/><circle id="region-main-4" fill="white" cx="225" cy="385" r="32"/><circle id="region-main-5" fill="white" cx="375" cy="385" r="32"/><circle id="region-main-6" fill="white" cx="220" cy="510" r="38"/><circle id="region-main-7" fill="white" cx="380" cy="510" r="38"/><path id="region-star-95" fill="white" d="M95 85l10 25 27 2-21 18 7 26-23-14-23 14 7-26-21-18 27-2Z"/><path id="region-star-480" fill="white" d="M480 115l10 25 27 2-21 18 7 26-23-14-23 14 7-26-21-18 27-2Z"/><path id="region-star-75" fill="white" d="M75 665l10 25 27 2-21 18 7 26-23-14-23 14 7-26-21-18 27-2Z"/><path id="region-star-500" fill="white" d="M500 665l10 25 27 2-21 18 7 26-23-14-23 14 7-26-21-18 27-2Z"/></g></svg>
