<svg xmlns="http://www.w3.org/2000/svg" viewBox="0 0 600 800"><rect width="600" height="800" fill="white"/><g stroke="#20232b" stroke-width="10" stroke-linecap="round" stroke-linejoin="round"><path id="region-main-1" fill="white" d="M65 645l170-390 170 390Z"/><path id="region-main-2" fill="white" d="M250 645l155-330 130 330Z"/><path id="region-main-3" fill="white" d="M175 390l60-135 60 135-60-30Z"/><path id="region-main-4" fill="white" d="M350 430l55-115 45 115-45-25Z"/><circle id="region-main-5" fill="white" cx="450" cy="210" r="55"/><path id="region-bunting" fill="white" d="M50 75h500l-55 60-55-60-55 60-55-60-55 60-55-60-55 60-55-60Z"/><ellipse id="region-balloon-95" fill="white" cx="95" cy="225" rx="35" ry="48"/><path d="M95 273v95" fill="none"/><ellipse id="region-balloon-505" fill="white" cx="505" cy="225" rx="35" ry="48"/><path d="M505 273v95" fill="none"/></g></svg>
