<svg xmlns="http://www.w3.org/2000/svg" viewBox="0 0 600 800"><rect width="600" height="800" fill="white"/><g stroke="#20232b" stroke-width="10" stroke-linecap="round" stroke-linejoin="round"><circle id="region-main-1" fill="white" cx="155" cy="600" r="55"/><circle id="region-main-2" fill="white" cx="435" cy="600" r="55"/><path id="region-main-3" fill="white" d="M155 580h260l-50-285h50l60 310H155Z"/><path id="region-main-4" fill="white" d="M345 295h100"/><path id="region-main-5" fill="white" d="M205 530l75-130h70l-50 130Z"/><path id="region-star-95" fill="white" d="M95 85l10 25 27 2-21 18 7 26-23-14-23 14 7-26-21-18 27-2Z"/><path id="region-star-480" fill="white" d="M480 115l10 25 27 2-21 18 7 26-23-14-23 14 7-26-21-18 27-2Z"/><path id="region-star-75" fill="white" d="M75 665l10 25 27 2-21 18 7 26-23-14-23 14 7-26-21-18 27-2Z"/><path id="region-star-500" fill="white" d="M500 665l10 25 27 2-21 18 7 26-23-14-23 14 7-26-21-18 27-2Z"/></g></svg>
