<svg xmlns="http://www.w3.org/2000/svg" viewBox="0 0 600 800"><rect width="600" height="800" fill="white"/><g stroke="#20232b" stroke-width="10" stroke-linecap="round" stroke-linejoin="round"><path id="region-main-1" fill="white" d="M80 640l30-280 100-120 65 160-30 240Z"/><path id="region-main-2" fill="white" d="M355 640l-30-240 65-160 100 120 30 280Z"/><path id="region-main-3" fill="white" d="M275 340h50l55 290H220Z"/><ellipse id="region-main-4" fill="white" cx="300" cy="650" rx="210" ry="55"/><path id="region-rainbow-outer" fill="white" d="M65 150Q300-65 535 150h-55Q300 5 120 150Z"/><path id="region-rainbow-inner" fill="white" d="M120 150Q300 5 480 150h-55Q300 70 175 150Z"/><path id="region-hills" fill="white" d="M35 735q130-70 260 0q130-70 270 0v40H35Z"/></g></svg>
